<?xml version="1.0" encoding="UTF-8" standalone="no"?><!DOCTYPE svg PUBLIC "-//W3C//DTD SVG 1.1//EN" "http://www.w3.org/Graphics/SVG/1.1/DTD/svg11.dtd"><svg width="100%" height="100%" viewBox="0 0 100 100" version="1.1" xmlns="http://www.w3.org/2000/svg" xmlns:xlink="http://www.w3.org/1999/xlink" xml:space="preserve" xmlns:serif="http://www.serif.com/" style="fill-rule:evenodd;clip-rule:evenodd;stroke-linejoin:round;stroke-miterlimit:2;"><path d="M30.449,85.176c-2.072,0 -3.845,-0.737 -5.32,-2.212c-1.475,-1.475 -2.212,-3.249 -2.212,-5.32l-0,-52.885l-1.042,0c-0.885,0 -1.627,-0.299 -2.226,-0.899c-0.599,-0.599 -0.899,-1.341 -0.899,-2.227c0,-0.886 0.3,-1.628 0.899,-2.226c0.599,-0.598 1.341,-0.898 2.226,-0.898l15.625,0c0,-1.02 0.359,-1.889 1.078,-2.608c0.718,-0.718 1.587,-1.077 2.607,-1.077l17.63,-0c1.02,-0 1.889,0.359 2.607,1.077c0.719,0.719 1.078,1.588 1.078,2.608l15.625,0c0.885,0 1.627,0.3 2.226,0.899c0.599,0.6 0.899,1.342 0.899,2.227c0,0.887 -0.3,1.629 -0.899,2.226c-0.599,0.599 -1.341,0.898 -2.226,0.898l-1.042,0l0,52.885c0,2.071 -0.737,3.845 -2.212,5.32c-1.475,1.475 -3.248,2.212 -5.32,2.212l-39.102,0Zm40.384,-60.417l-41.666,0l-0,52.885c-0,0.374 0.12,0.681 0.36,0.922c0.24,0.24 0.548,0.36 0.922,0.36l39.102,0c0.374,0 0.682,-0.12 0.922,-0.36c0.24,-0.241 0.36,-0.548 0.36,-0.922l0,-52.885Zm-26.298,44.936c0.598,-0.6 0.897,-1.342 0.897,-2.227l0,-31.25c0,-0.886 -0.299,-1.628 -0.899,-2.227c-0.598,-0.599 -1.341,-0.898 -2.227,-0.898c-0.885,-0 -1.627,0.299 -2.226,0.898c-0.598,0.599 -0.897,1.341 -0.897,2.227l0,31.25c0,0.885 0.3,1.627 0.898,2.227c0.6,0.598 1.342,0.898 2.228,0.898c0.886,-0 1.628,-0.3 2.226,-0.898Zm15.385,-0c0.598,-0.6 0.897,-1.342 0.897,-2.227l-0,-31.25c-0,-0.886 -0.3,-1.628 -0.898,-2.227c-0.6,-0.599 -1.342,-0.898 -2.228,-0.898c-0.886,-0 -1.628,0.299 -2.226,0.898c-0.598,0.599 -0.897,1.341 -0.897,2.227l-0,31.25c-0,0.885 0.299,1.627 0.899,2.227c0.598,0.598 1.341,0.898 2.227,0.898c0.885,-0 1.627,-0.3 2.226,-0.898Zm-30.753,-44.936l-0,54.167l-0,-54.167Z" style="fill:#ff5353;fill-rule:nonzero;"/></svg>